<svg width="127" height="11" viewBox="0 0 127 11" fill="none" xmlns="http://www.w3.org/2000/svg">
<path d="M4.914 1.182H6.594L8.204 5.9L9.562 1.182H11.214L9.03 8H7.406L5.712 3.1L4.06 8H2.394L0.182 1.182H1.918L3.304 5.9L4.914 1.182ZM16.3163 1.182H17.9963L19.6063 5.9L20.9643 1.182H22.6163L20.4323 8H18.8083L17.1143 3.1L15.4623 8H13.7963L11.5843 1.182H13.3203L14.7063 5.9L16.3163 1.182ZM27.7187 1.182H29.3987L31.0087 5.9L32.3667 1.182H34.0187L31.8347 8H30.2107L28.5167 3.1L26.8647 8H25.1987L22.9867 1.182H24.7227L26.1087 5.9L27.7187 1.182ZM34.8655 7.762C34.6508 7.538 34.5435 7.26733 34.5435 6.95C34.5435 6.63267 34.6508 6.362 34.8655 6.138C35.0895 5.914 35.3601 5.802 35.6775 5.802C35.9948 5.802 36.2655 5.914 36.4895 6.138C36.7135 6.362 36.8255 6.63267 36.8255 6.95C36.8255 7.26733 36.7135 7.538 36.4895 7.762C36.2655 7.97667 35.9948 8.084 35.6775 8.084C35.3601 8.084 35.0895 7.97667 34.8655 7.762ZM41.5336 2.47C41.011 2.47 40.5676 2.66133 40.2036 3.044C39.8396 3.41733 39.6576 3.93067 39.6576 4.584C39.6576 5.24667 39.8396 5.76933 40.2036 6.152C40.577 6.53467 41.0296 6.726 41.5616 6.726C42.0376 6.726 42.4156 6.6 42.6956 6.348C42.985 6.08667 43.1763 5.79267 43.2696 5.466L44.6976 5.984C44.511 6.59067 44.147 7.11333 43.6056 7.552C43.0736 7.99067 42.3923 8.21 41.5616 8.21C40.563 8.21 39.723 7.86467 39.0416 7.174C38.3696 6.48333 38.0336 5.62 38.0336 4.584C38.0336 3.53867 38.365 2.67533 39.0276 1.994C39.6996 1.31267 40.5303 0.972 41.5196 0.972C42.369 0.972 43.0596 1.19133 43.5916 1.63C44.133 2.06867 44.483 2.596 44.6416 3.212L43.1856 3.744C43.0923 3.38933 42.9103 3.09067 42.6396 2.848C42.3783 2.596 42.0096 2.47 41.5336 2.47ZM47.7095 6.18C48.0828 6.56267 48.5355 6.754 49.0675 6.754C49.5995 6.754 50.0475 6.56267 50.4115 6.18C50.7848 5.79733 50.9715 5.26533 50.9715 4.584C50.9715 3.912 50.7848 3.38933 50.4115 3.016C50.0475 2.63333 49.5995 2.442 49.0675 2.442C48.5355 2.442 48.0828 2.63333 47.7095 3.016C47.3455 3.38933 47.1635 3.912 47.1635 4.584C47.1635 5.256 47.3455 5.788 47.7095 6.18ZM49.0675 0.972C50.0942 0.972 50.9388 1.31267 51.6015 1.994C52.2735 2.67533 52.6095 3.53867 52.6095 4.584C52.6095 5.62933 52.2735 6.49733 51.6015 7.188C50.9388 7.86933 50.0942 8.21 49.0675 8.21C48.0502 8.21 47.2055 7.86933 46.5335 7.188C45.8708 6.49733 45.5395 5.62933 45.5395 4.584C45.5395 3.53867 45.8708 2.67533 46.5335 1.994C47.2055 1.31267 48.0502 0.972 49.0675 0.972ZM55.7889 8H54.1789V1.182H55.7329V2.05C55.9196 1.714 56.1996 1.45267 56.5729 1.266C56.9556 1.07933 57.3476 0.985999 57.7489 0.985999C58.2062 0.985999 58.6169 1.08867 58.9809 1.294C59.3449 1.49933 59.6156 1.798 59.7929 2.19C60.2689 1.38733 61.0062 0.985999 62.0049 0.985999C62.6769 0.985999 63.2462 1.20533 63.7129 1.644C64.1796 2.08267 64.4129 2.72667 64.4129 3.576V8H62.8449V3.842C62.8449 3.422 62.7329 3.086 62.5089 2.834C62.2942 2.57267 61.9676 2.442 61.5289 2.442C61.1089 2.442 60.7682 2.58667 60.5069 2.876C60.2456 3.16533 60.1149 3.52467 60.1149 3.954V8H58.5189V3.842C58.5189 3.422 58.4069 3.086 58.1829 2.834C57.9682 2.57267 57.6416 2.442 57.2029 2.442C56.7736 2.442 56.4282 2.58667 56.1669 2.876C55.9149 3.156 55.7889 3.51533 55.7889 3.954V8ZM68.0116 10.66H66.4016V1.182H67.9696V2.106C68.1469 1.798 68.4269 1.54133 68.8096 1.336C69.1922 1.13067 69.6356 1.028 70.1396 1.028C71.1196 1.028 71.8896 1.364 72.4496 2.036C73.0096 2.69867 73.2896 3.548 73.2896 4.584C73.2896 5.62 72.9956 6.47867 72.4076 7.16C71.8196 7.832 71.0449 8.168 70.0836 8.168C69.6169 8.168 69.2016 8.07933 68.8376 7.902C68.4736 7.72467 68.1982 7.50067 68.0116 7.23V10.66ZM71.6656 4.584C71.6656 3.94933 71.4976 3.44067 71.1616 3.058C70.8256 2.666 70.3822 2.47 69.8316 2.47C69.2902 2.47 68.8469 2.666 68.5016 3.058C68.1656 3.44067 67.9976 3.94933 67.9976 4.584C67.9976 5.228 68.1656 5.746 68.5016 6.138C68.8469 6.53 69.2902 6.726 69.8316 6.726C70.3729 6.726 70.8116 6.53 71.1476 6.138C71.4929 5.746 71.6656 5.228 71.6656 4.584ZM74.4308 6.152C74.4308 5.57333 74.6174 5.11133 74.9908 4.766C75.3734 4.41133 75.8728 4.18733 76.4888 4.094L78.2388 3.828C78.5748 3.78133 78.7428 3.618 78.7428 3.338C78.7428 3.03 78.6354 2.78267 78.4208 2.596C78.2061 2.4 77.8841 2.302 77.4548 2.302C77.0441 2.302 76.7174 2.41867 76.4748 2.652C76.2321 2.876 76.0921 3.17 76.0548 3.534L74.5708 3.198C74.6361 2.582 74.9301 2.05933 75.4528 1.63C75.9754 1.19133 76.6381 0.972 77.4408 0.972C78.4301 0.972 79.1581 1.21 79.6248 1.686C80.1008 2.162 80.3388 2.77333 80.3388 3.52V6.908C80.3388 7.356 80.3668 7.72 80.4228 8H78.9108C78.8641 7.86 78.8408 7.57067 78.8408 7.132C78.3928 7.85067 77.6928 8.21 76.7408 8.21C76.0501 8.21 75.4901 8.00933 75.0608 7.608C74.6408 7.19733 74.4308 6.712 74.4308 6.152ZM77.0488 6.936C77.5528 6.936 77.9588 6.80067 78.2668 6.53C78.5841 6.25 78.7428 5.79733 78.7428 5.172V4.864L76.9648 5.13C76.3581 5.23267 76.0548 5.54067 76.0548 6.054C76.0548 6.29667 76.1434 6.50667 76.3208 6.684C76.4981 6.852 76.7408 6.936 77.0488 6.936ZM83.926 4.066V8H82.302V1.182H83.884V2.092C84.0986 1.71867 84.3833 1.44333 84.738 1.266C85.102 1.07933 85.4893 0.985999 85.9 0.985999C86.7026 0.985999 87.314 1.238 87.734 1.742C88.154 2.246 88.364 2.89467 88.364 3.688V8H86.74V3.968C86.74 3.51067 86.628 3.14667 86.404 2.876C86.18 2.596 85.8253 2.456 85.34 2.456C84.892 2.456 84.542 2.61 84.29 2.918C84.0473 3.21667 83.926 3.59933 83.926 4.066ZM92.3447 10.758H90.6087L92.2467 7.188L89.3347 1.182H91.1687L93.1287 5.494L94.9627 1.182H96.6847L92.3447 10.758ZM96.6487 7.762C96.434 7.538 96.3267 7.26733 96.3267 6.95C96.3267 6.63267 96.434 6.362 96.6487 6.138C96.8727 5.914 97.1433 5.802 97.4607 5.802C97.778 5.802 98.0487 5.914 98.2727 6.138C98.4967 6.362 98.6087 6.63267 98.6087 6.95C98.6087 7.26733 98.4967 7.538 98.2727 7.762C98.0487 7.97667 97.778 8.084 97.4607 8.084C97.1433 8.084 96.8727 7.97667 96.6487 7.762ZM103.317 2.47C102.794 2.47 102.351 2.66133 101.987 3.044C101.623 3.41733 101.441 3.93067 101.441 4.584C101.441 5.24667 101.623 5.76933 101.987 6.152C102.36 6.53467 102.813 6.726 103.345 6.726C103.821 6.726 104.199 6.6 104.479 6.348C104.768 6.08667 104.959 5.79267 105.053 5.466L106.481 5.984C106.294 6.59067 105.93 7.11333 105.389 7.552C104.857 7.99067 104.175 8.21 103.345 8.21C102.346 8.21 101.506 7.86467 100.825 7.174C100.153 6.48333 99.8168 5.62 99.8168 4.584C99.8168 3.53867 100.148 2.67533 100.811 1.994C101.483 1.31267 102.313 0.972 103.303 0.972C104.152 0.972 104.843 1.19133 105.375 1.63C105.916 2.06867 106.266 2.596 106.425 3.212L104.969 3.744C104.875 3.38933 104.693 3.09067 104.423 2.848C104.161 2.596 103.793 2.47 103.317 2.47ZM109.493 6.18C109.866 6.56267 110.319 6.754 110.851 6.754C111.383 6.754 111.831 6.56267 112.195 6.18C112.568 5.79733 112.755 5.26533 112.755 4.584C112.755 3.912 112.568 3.38933 112.195 3.016C111.831 2.63333 111.383 2.442 110.851 2.442C110.319 2.442 109.866 2.63333 109.493 3.016C109.129 3.38933 108.947 3.912 108.947 4.584C108.947 5.256 109.129 5.788 109.493 6.18ZM110.851 0.972C111.877 0.972 112.722 1.31267 113.385 1.994C114.057 2.67533 114.393 3.53867 114.393 4.584C114.393 5.62933 114.057 6.49733 113.385 7.188C112.722 7.86933 111.877 8.21 110.851 8.21C109.833 8.21 108.989 7.86933 108.317 7.188C107.654 6.49733 107.323 5.62933 107.323 4.584C107.323 3.53867 107.654 2.67533 108.317 1.994C108.989 1.31267 109.833 0.972 110.851 0.972ZM117.572 8H115.962V1.182H117.516V2.05C117.703 1.714 117.983 1.45267 118.356 1.266C118.739 1.07933 119.131 0.985999 119.532 0.985999C119.989 0.985999 120.4 1.08867 120.764 1.294C121.128 1.49933 121.399 1.798 121.576 2.19C122.052 1.38733 122.789 0.985999 123.788 0.985999C124.46 0.985999 125.029 1.20533 125.496 1.644C125.963 2.08267 126.196 2.72667 126.196 3.576V8H124.628V3.842C124.628 3.422 124.516 3.086 124.292 2.834C124.077 2.57267 123.751 2.442 123.312 2.442C122.892 2.442 122.551 2.58667 122.29 2.876C122.029 3.16533 121.898 3.52467 121.898 3.954V8H120.302V3.842C120.302 3.422 120.19 3.086 119.966 2.834C119.751 2.57267 119.425 2.442 118.986 2.442C118.557 2.442 118.211 2.58667 117.95 2.876C117.698 3.156 117.572 3.51533 117.572 3.954V8Z" fill="white"/>
</svg>
